<svg width="34" height="34" viewBox="0 0 34 34" fill="none" xmlns="http://www.w3.org/2000/svg">
<path fill-rule="evenodd" clip-rule="evenodd" d="M1.00001 16.9819C1.00895 9.34969 6.40765 2.78647 13.8948 1.30561C21.382 -0.175237 28.8727 3.83866 31.7864 10.8928C34.7001 17.947 32.2254 26.0771 25.8755 30.3115C19.5257 34.546 11.069 33.7056 5.67666 28.3043C2.67739 25.3001 0.995041 21.227 1.00001 16.9819Z" fill="#333333" stroke="#DADADA" stroke-linecap="round" stroke-linejoin="round"/>
<path fill-rule="evenodd" clip-rule="evenodd" d="M12.0767 12.0566L16.9995 16.9794L12.0767 12.0566ZM16.9993 16.9801L21.9221 21.9029L16.9993 16.9801ZM16.9995 16.9801L12.0767 21.9029L16.9995 16.9801ZM16.9993 16.9794L21.9221 12.0566L16.9993 16.9794Z" fill="#D2D2D2"/>
<path d="M12.4302 11.7031C12.235 11.5078 11.9184 11.5078 11.7231 11.7031C11.5278 11.8983 11.5278 12.2149 11.7231 12.4102L12.4302 11.7031ZM16.6459 17.333C16.8412 17.5282 17.1577 17.5282 17.353 17.333C17.5483 17.1377 17.5483 16.8211 17.353 16.6259L16.6459 17.333ZM17.3529 16.6265C17.1576 16.4313 16.841 16.4313 16.6458 16.6265C16.4505 16.8218 16.4505 17.1384 16.6458 17.3336L17.3529 16.6265ZM21.5686 22.2564C21.7638 22.4517 22.0804 22.4517 22.2757 22.2564C22.4709 22.0612 22.4709 21.7446 22.2757 21.5493L21.5686 22.2564ZM17.353 17.3336C17.5483 17.1384 17.5483 16.8218 17.353 16.6265C17.1577 16.4313 16.8412 16.4313 16.6459 16.6265L17.353 17.3336ZM11.7231 21.5493C11.5278 21.7446 11.5278 22.0612 11.7231 22.2564C11.9184 22.4517 12.235 22.4517 12.4302 22.2564L11.7231 21.5493ZM16.6458 16.6259C16.4505 16.8211 16.4505 17.1377 16.6458 17.333C16.841 17.5282 17.1576 17.5282 17.3529 17.333L16.6458 16.6259ZM22.2757 12.4102C22.4709 12.2149 22.4709 11.8983 22.2757 11.7031C22.0804 11.5078 21.7638 11.5078 21.5686 11.7031L22.2757 12.4102ZM11.7231 12.4102L16.6459 17.333L17.353 16.6259L12.4302 11.7031L11.7231 12.4102ZM16.6458 17.3336L21.5686 22.2564L22.2757 21.5493L17.3529 16.6265L16.6458 17.3336ZM16.6459 16.6265L11.7231 21.5493L12.4302 22.2564L17.353 17.3336L16.6459 16.6265ZM17.3529 17.333L22.2757 12.4102L21.5686 11.7031L16.6458 16.6259L17.3529 17.333Z" fill="white"/>
</svg>
